#File generated from solving marker data for model walk1.trc
name solved_motion
datacolumns 41
datarows 10
range 0.7500000000 0.8250000000
units unknown
enforce_loops no
enforce_constraints no
endheader

time	lower_torso_TX	lower_torso_TY	lower_torso_TZ	lower_torso_RX	lower_torso_RY	lower_torso_RZ	lumbar_roll	lumbar_yaw	lumbar_pitch	neck_roll	neck_yaw	neck_pitch	arm_add_r	arm_rot_r	arm_flex_r	elbow_flex_r	pro_sup_r	wrist_dev_r	wrist_flex_r	arm_add_l	arm_rot_l	arm_flex_l	elbow_flex_l	pro_sup_l	wrist_dev_l	wrist_flex_l	hip_add_r	hip_rot_r	hip_flex_r	knee_flex_r	ankle_flex_r	subt_angle_r	toe_angle_r	hip_add_l	hip_rot_l	hip_flex_l	knee_flex_l	ankle_flex_l	subt_angle_l	toe_angle_l	
0.7500000000	-0.8216930946	0.2943100867	0.6954868276	88.2083796032	-15.2770661433	-3.3101010803	-0.0154747134	20.8947181809	-14.9178819161	0.0000000000	0.0000000000	0.0000000000	-44.7491990442	-9.9999999996	33.1679292113	0.0000000000	70.0000000000	0.0000000000	0.0000000000	-25.5488629292	10.0000000000	6.8299276403	0.0000000000	70.0000000000	0.0000000000	0.0000000000	2.0196798034	17.7809940830	35.8292712224	98.6135139115	26.0100208761	20.0000000000	0.0000000000	1.5242271170	15.6345308885	65.1716764047	95.6950701120	14.7254896832	4.1875993373	-0.0310000000	
0.7580000000	-0.8104620009	0.2950946013	0.6937221468	88.1903189682	-15.7759822530	-3.4669799707	-0.0354701780	21.4978371112	-14.1451925649	0.0000000000	0.0000000000	0.0000000000	-44.3288658361	-9.9999999996	32.9227542430	0.0000000000	70.0000000000	0.0000000000	0.0000000000	-25.4421414139	10.0000000000	5.9655198933	0.0000000000	70.0000000000	0.0000000000	0.0000000000	1.6455074011	17.8367216785	35.7121220275	99.0694288115	23.6484433952	20.0000000000	0.0000000000	1.2793081391	14.9596101031	64.8989688874	97.0616440246	15.3325043772	3.9929894594	-0.0320000000	
0.7670000000	-0.8001107309	0.2965002976	0.6922795754	88.3115021998	-16.1379723463	-3.4578860906	-0.0471869267	21.6259843760	-13.4380724704	0.0000000000	0.0000000000	0.0000000000	-43.7021079917	-9.9999999996	33.0438304973	0.0000000000	70.0000000000	0.0000000000	0.0000000000	-25.5376952118	10.0000000000	4.8516326500	0.0000000000	70.0000000000	0.0000000000	0.0000000000	1.0160326073	17.9526855877	35.7287753190	99.7357006174	21.9883568744	20.0000000000	0.0000000000	1.2502750464	14.4449796603	64.2898796751	98.1212536308	16.8404432261	4.7523461219	-0.0330000000	
0.7750000000	-0.7922785672	0.2964551892	0.6907368555	87.9394897405	-16.2871774176	-3.5452402024	-0.0128717977	22.2820676256	-13.4462130780	0.0000000000	0.0000000000	0.0000000000	-43.3995595303	-9.9999999996	32.7838390732	0.0000000000	70.0000000000	0.0000000000	0.0000000000	-26.1536632979	10.0000000000	4.4652851432	0.0000000000	70.0000000000	0.0000000000	0.0000000000	1.1246463170	17.5451262217	35.8422166596	100.5875676422	20.8867345678	20.0000000000	0.0000000000	0.7815763339	14.7036470857	63.7159059163	98.7832491130	18.9556814361	7.4753734031	-0.0340000000	
0.7830000000	-0.7858827489	0.2967926061	0.6899208028	86.8817011739	-15.8676181717	-3.5156825801	0.7095786698	22.1215908907	-13.9743586265	0.0000000000	0.0000000000	0.0000000000	-43.3574629086	-9.9999999996	32.8760428140	0.0000000000	70.0000000000	0.0000000000	0.0000000000	-26.4006600004	10.0000000000	4.0032180353	0.0000000000	70.0000000000	0.0000000000	0.0000000000	1.6984120182	16.4477360813	35.6515223443	101.4440681899	18.6082726378	20.0000000000	0.0000000000	0.2122762673	15.7003905674	63.1140220865	99.2779289965	20.1699627409	8.2589046220	-0.0350000000	
0.7920000000	-0.7748636301	0.2977177314	0.6881504007	87.2389389934	-16.2578153368	-3.5923222804	0.3269170368	22.5733135792	-13.1741907768	0.0000000000	0.0000000000	0.0000000000	-42.9511587399	-9.9999999996	32.1696707312	0.0000000000	70.0000000000	0.0000000000	0.0000000000	-26.4896321015	10.0000000000	3.2762820086	0.0000000000	70.0000000000	0.0000000000	0.0000000000	1.1772083478	16.7621867013	36.1336750632	102.5492614061	17.2692970081	20.0000000000	0.0000000000	-0.0272546274	14.7551406977	62.3786675993	99.4718489473	22.3223070731	8.7394276974	-0.0360000000	
0.8000000000	-0.7672145604	0.3001607247	0.6860922008	87.1705363958	-15.8249476048	-3.8234343791	0.3935057952	22.3389199993	-12.9776196476	0.0000000000	0.0000000000	0.0000000000	-42.9679485081	-9.9999999996	32.2678997788	0.0000000000	70.0000000000	0.0000000000	0.0000000000	-26.9451932660	10.0000000000	3.3045836365	0.0000000000	70.0000000000	0.0000000000	0.0000000000	0.6253867912	16.3950862362	36.7858332107	103.5174134188	14.2125635354	20.0000000000	0.0000000000	0.7182681198	15.0112363771	61.7962086638	99.5969010652	23.7826827740	7.7887500100	-0.0370000000	
0.8080000000	-0.7571216684	0.3001570657	0.6851579012	87.2990558619	-16.3983062335	-3.8268608240	0.0598091765	22.8646736154	-12.6313006043	0.0000000000	0.0000000000	0.0000000000	-42.3621254496	-9.9999999996	31.8799465455	0.0000000000	70.0000000000	0.0000000000	0.0000000000	-27.2230883498	10.0000000000	2.5455794913	0.0000000000	70.0000000000	0.0000000000	0.0000000000	0.0877995891	16.8755345942	37.1221044805	104.5315794858	12.6955585133	20.0000000000	0.0000000000	0.3815366102	14.2285713295	60.5450731683	99.5834575171	25.5436212853	7.5609902416	-0.0380000000	
0.8170000000	-0.7486323512	0.3019287927	0.6838456317	87.3059751017	-15.9799919539	-3.6785545165	0.1564530286	22.5390811989	-12.5044336828	0.0000000000	0.0000000000	0.0000000000	-41.9818642089	-9.9999999996	31.5427574126	0.0000000000	70.0000000000	0.0000000000	0.0000000000	-27.5411535272	10.0000000000	2.2864774609	0.0000000000	70.0000000000	0.0000000000	0.0000000000	-0.5763051154	16.0686956528	37.7439290378	105.6609966602	10.3634409602	20.0000000000	0.0000000000	0.9469414165	13.9537132164	59.4720444029	99.6335912557	27.1443664025	6.1910223936	-0.0390000000	
0.8250000000	-0.7426221812	0.3019824773	0.6818746000	86.4061960420	-15.5831186332	-4.1057846795	0.6920083557	22.5037675911	-12.4641190525	0.0000000000	0.0000000000	0.0000000000	-41.7589727523	-9.9999999996	31.3968631520	0.0000000000	70.0000000000	0.0000000000	0.0000000000	-28.0745794256	10.0000000000	2.1868883492	0.0000000000	70.0000000000	0.0000000000	0.0000000000	0.3424773286	15.2690900346	38.5784394092	106.7460227193	7.6251371807	20.0000000000	0.0000000000	0.6182164140	14.5778354242	59.2553242927	99.8541019856	27.8000999839	5.6351571285	-0.0400000000	
